<?xml version="1.0" encoding="UTF-8"?>
<svg width="230px" height="47px" viewBox="0 0 230 47" version="1.1" xmlns="http://www.w3.org/2000/svg" xmlns:xlink="http://www.w3.org/1999/xlink">
    <title>KiwriousLogo_Horizontal</title>
    <g id="Landing-Page" stroke="none" stroke-width="1" fill="none" fill-rule="evenodd">
        <g transform="translate(-176.000000, -31.000000)" fill="#FFFFFF" id="Group">
            <g transform="translate(176.000000, 31.000000)" id="logo-gradient-wide-white-copy-2">
                <g id="Group-3" transform="translate(0.000000, 0.092272)">
                    <path d="M18.928303,1.07616176 C13.0688788,3.49597059 7.88342424,6.35122059 2.71818182,9.88520588 L2.71818182,9.88520588 C1.29357576,10.9489265 0.511575758,12.7280147 0.373575758,14.5174706 L0.373575758,14.5174706 C-0.124060606,20.5645735 -0.127545455,26.3759853 0.380545455,32.4230882 L0.380545455,32.4230882 C0.524818182,34.2111618 1.30542424,35.99025 2.72863636,37.0539706 L2.72863636,37.0539706 C7.88969697,40.5900294 13.0702727,43.4445882 18.928303,45.8643971 L18.928303,45.8643971 C19.5207273,46.1007794 20.1459091,46.248 20.7815455,46.3088235 L20.7815455,46.3088235 L20.1814545,31.4644265 C20.1814545,30.7794706 20.7153333,30.2113235 21.4046364,30.1636324 L21.4046364,30.1636324 C26.703,29.7973088 30.8534545,25.5403529 30.8534545,20.4719559 L30.8534545,20.4719559 C30.8534545,15.3558676 26.6556061,11.1922206 21.4959394,11.1922206 L21.4959394,11.1922206 C16.3362727,11.1922206 12.1377273,15.3558676 12.1377273,20.4719559 L12.1377273,20.4719559 C12.1377273,22.2731618 12.6583636,24.0197647 13.6424848,25.5216912 L13.6424848,25.5216912 C14.0383636,26.1250882 13.8655152,26.9330735 13.2570606,27.3256618 L13.2570606,27.3256618 C12.6472121,27.71825 11.8338485,27.5461471 11.4379697,26.9420588 L11.4379697,26.9420588 C10.1757576,25.0164412 9.50875758,22.7791029 9.50875758,20.4719559 L9.50875758,20.4719559 C9.50875758,13.9175294 14.8858788,8.58441176 21.4959394,8.58441176 L21.4959394,8.58441176 C28.105303,8.58441176 33.4824242,13.9175294 33.4824242,20.4719559 L33.4824242,20.4719559 C33.4824242,26.5052353 28.8859091,31.6303088 22.8104242,32.6228382 L22.8104242,32.6228382 L22.1873333,46.2963824 C22.792303,46.2307206 23.3889091,46.0897206 23.9534545,45.8643971 L23.9534545,45.8643971 C29.8107879,43.4487353 34.9788182,40.5927941 40.1329091,37.0525882 L40.1329091,37.0525882 C41.5526364,35.9881765 42.3311515,34.2090882 42.4886667,32.4217059 L42.4886667,32.4217059 C43.0427576,26.3704559 43.0218485,20.5694118 42.5053939,14.5174706 L42.5053939,14.5174706 C42.3646061,12.7293971 41.584,10.9489265 40.1593939,9.88520588 L40.1593939,9.88520588 C34.9948485,6.35122059 29.8149697,3.49251471 23.9534545,1.07616176 L23.9534545,1.07616176 C23.1568182,0.758220588 22.2988485,0.59925 21.4408788,0.59925 L21.4408788,0.59925 C20.5836061,0.59925 19.7256364,0.758220588 18.928303,1.07616176 M22.9832727,21.3559706 C22.9832727,20.3745 23.7847879,19.5796471 24.7744848,19.5796471 L24.7744848,19.5796471 C25.7627879,19.5796471 26.565697,20.3745 26.565697,21.3559706 L26.565697,21.3559706 C26.565697,22.33675 25.7627879,23.1322941 24.7744848,23.1322941 L24.7744848,23.1322941 C23.7847879,23.1322941 22.9832727,22.33675 22.9832727,21.3559706 M16.4254848,21.3559706 C16.4254848,20.3745 17.2283939,19.5796471 18.2173939,19.5796471 L18.2173939,19.5796471 C19.2063939,19.5796471 20.0079091,20.3745 20.0079091,21.3559706 L20.0079091,21.3559706 C20.0079091,22.33675 19.2063939,23.1322941 18.2173939,23.1322941 L18.2173939,23.1322941 C17.2283939,23.1322941 16.4254848,22.33675 16.4254848,21.3559706" id="Fill-1"></path>
                </g>
                <g id="Group-21" transform="translate(59.939394, 8.386390)">
                    <path d="M16.8908515,28.2462397 L10.0257,17.9511662 C9.31409394,16.9137103 9.02136667,15.8769456 9.02136667,14.7966368 C9.02136667,13.8006515 9.27157879,12.8461368 9.98388182,11.7665191 L16.5563061,1.92900441 C17.1835788,1.01526912 17.8108515,0.558401471 18.9413364,0.558401471 L21.7877606,0.558401471 C22.9182455,0.558401471 23.4207606,1.18115147 23.4207606,2.05341618 C23.4207606,2.63400441 23.2534879,3.13234265 22.6255182,4.04538676 L15.5512758,14.3404603 L22.9182455,24.8014162 C24.1323667,26.5037838 23.5037,28.537225 21.7466394,29.5332103 C20.030003,30.4884162 17.9788212,29.9064456 16.8908515,28.2462397 M0.272306061,27.9559456 L0.272306061,2.21929853 C0.272306061,1.22262206 0.900275758,0.558401471 1.94712424,0.558401471 L5.46333636,0.558401471 C6.50948788,0.558401471 7.17927576,1.22262206 7.17927576,2.21929853 L7.17927576,27.9559456 C7.17927576,28.9519309 6.50948788,29.6161515 5.46333636,29.6161515 L1.94712424,29.6161515 C0.900275758,29.6161515 0.272306061,28.9519309 0.272306061,27.9559456" id="Fill-4"></path>
                    <path d="M26.1161515,4.37770441 L26.1161515,2.50945441 C26.1161515,1.18101324 26.8277576,0.475322059 28.2084545,0.475322059 L31.2646667,0.475322059 C32.6460606,0.475322059 33.3576667,1.18101324 33.3576667,2.50945441 L33.3576667,4.37770441 C33.3576667,5.66398382 32.6042424,6.37036618 31.2646667,6.37036618 L28.2084545,6.37036618 C26.8688788,6.37036618 26.1161515,5.66398382 26.1161515,4.37770441 M26.7859394,24.0541162 L26.7859394,13.4272779 L24.7347576,13.4272779 C24.1067879,13.4272779 23.6460909,13.0118809 23.6460909,12.3898221 L23.6460909,9.56705735 C23.6460909,8.90283676 24.1067879,8.48674853 24.7347576,8.48674853 L31.5992121,8.48674853 C32.8969697,8.48674853 33.5660606,9.06871912 33.5660606,10.4386309 L33.5660606,23.5143074 C33.5660606,24.3029397 33.8183636,24.5932338 34.5292727,24.5932338 L35.8688485,24.5932338 C36.4975152,24.5932338 36.9575152,25.0093221 36.9575152,25.6735426 L36.9575152,28.1638515 C36.9575152,29.1183662 36.455,29.6167044 35.4506667,29.6167044 L32.9387879,29.6167044 C28.2927879,29.6167044 26.7859394,27.8728662 26.7859394,24.0541162" id="Fill-6"></path>
                    <path d="M41.2691091,27.7069147 L37.8365333,11.7670029 C37.6692606,10.9776794 37.6267455,10.4793412 37.6267455,10.1061059 C37.6267455,9.06865 38.1717758,8.48667941 39.2597455,8.48667941 L41.7298061,8.48667941 C42.9432303,8.48667941 43.5293818,8.98501765 43.7809879,10.2312088 L46.2085333,22.8085471 L49.4731394,11.5174882 C49.9756545,9.73287059 50.6043212,9.11012059 52.2784424,9.11012059 L53.3657152,9.11012059 C54.9987152,9.11012059 55.668503,9.77434118 56.1710182,11.5174882 L59.3938061,22.8085471 L61.8220485,10.2312088 C62.0729576,8.98501765 62.7009273,8.48667941 63.9143515,8.48667941 L66.0080485,8.48667941 C67.1378364,8.48667941 67.6403515,9.06865 67.6403515,10.1061059 C67.6403515,10.4793412 67.5978364,10.9776794 67.4305636,11.7670029 L63.9986848,27.7069147 C63.7052606,29.1182971 62.8270788,29.6995765 61.6122606,29.6995765 L57.8869576,29.6995765 C56.6317152,29.6995765 55.9201091,29.1182971 55.4594121,27.5818118 L52.6548061,18.0352824 L49.8920182,27.5818118 C49.4320182,29.1182971 48.7622303,29.6995765 47.4644727,29.6995765 L43.6548364,29.6995765 C42.4414121,29.6995765 41.5625333,29.1182971 41.2691091,27.7069147" id="Fill-8"></path>
                    <path d="M72.0794212,28.0802191 L72.0794212,14.7964985 L70.6980273,13.3858074 C69.692997,12.3898221 69.6093606,11.0613809 70.6136939,10.106175 L71.9121485,8.860675 C72.9164818,7.86468971 74.2142394,7.90685147 75.2185727,8.90283676 L77.4370273,11.1028515 C78.4420576,9.27607206 80.0318455,8.23861618 82.0837242,8.23861618 L82.6280576,8.23861618 C84.5112697,8.23861618 85.515603,9.11018971 85.515603,10.6452926 L85.515603,12.0158956 C85.515603,13.4680574 84.5523909,14.3403221 83.0044212,14.3403221 L82.0837242,14.3403221 C79.9063909,14.3403221 78.8184212,15.5028809 78.8184212,17.7443662 L78.8184212,28.0802191 C78.8184212,29.035425 78.2322697,29.6167044 77.2697545,29.6167044 L73.6280879,29.6167044 C72.6648758,29.6167044 72.0794212,29.035425 72.0794212,28.0802191" id="Fill-10"></path>
                    <path d="M90.0794303,4.37770441 L90.0794303,2.50945441 C90.0794303,1.18101324 90.7910364,0.475322059 92.1724303,0.475322059 L95.2279455,0.475322059 C96.6093394,0.475322059 97.3216424,1.18101324 97.3216424,2.50945441 L97.3216424,4.37770441 C97.3216424,5.66398382 96.5675212,6.37036618 95.2279455,6.37036618 L92.1724303,6.37036618 C90.8328545,6.37036618 90.0794303,5.66398382 90.0794303,4.37770441 M90.7492182,24.0541162 L90.7492182,13.4272779 L88.6980364,13.4272779 C88.0700667,13.4272779 87.6100667,13.0118809 87.6100667,12.3898221 L87.6100667,9.56705735 C87.6100667,8.90283676 88.0700667,8.48674853 88.6980364,8.48674853 L95.5624909,8.48674853 C96.8602485,8.48674853 97.5300364,9.06871912 97.5300364,10.4386309 L97.5300364,23.5143074 C97.5300364,24.3029397 97.7816424,24.5932338 98.4932485,24.5932338 L99.8328242,24.5932338 C100.460794,24.5932338 100.920794,25.0093221 100.920794,25.6735426 L100.920794,28.1638515 C100.920794,29.1183662 100.418279,29.6167044 99.4139455,29.6167044 L96.9020667,29.6167044 C92.2560667,29.6167044 90.7492182,27.8728662 90.7492182,24.0541162" id="Fill-12"></path>
                    <path d="M116.493536,22.0614544 L116.493536,16.0426897 C116.493536,13.9663956 115.2369,12.8459985 112.810052,12.8459985 C110.423627,12.8459985 109.209506,13.9663956 109.209506,16.0426897 L109.209506,22.0614544 C109.209506,24.1785279 110.423627,25.2996162 112.851173,25.2996162 C115.2369,25.2996162 116.493536,24.1785279 116.493536,22.0614544 M102.38687,21.5223368 L102.38687,16.5818074 C102.38687,11.0192191 106.321264,7.98910147 112.810052,7.98910147 C119.381779,7.98910147 123.316173,11.0192191 123.316173,16.5818074 L123.316173,21.5223368 C123.316173,27.1257044 119.381779,30.1143515 112.851173,30.1143515 C106.321264,30.1143515 102.38687,27.1257044 102.38687,21.5223368" id="Fill-14"></path>
                    <path d="M126.581894,21.6463338 L126.581894,10.0235103 C126.581894,9.109775 127.209864,8.487025 128.131258,8.487025 L131.814742,8.487025 C132.735439,8.487025 133.363409,9.109775 133.363409,10.0235103 L133.363409,21.5633926 C133.363409,23.7634074 134.493894,24.9674368 136.67053,24.9674368 C138.888985,24.9674368 140.018773,23.8048779 140.018773,21.5633926 L140.018773,10.0235103 C140.018773,9.109775 140.646742,8.487025 141.568136,8.487025 L145.251621,8.487025 C146.171621,8.487025 146.800288,9.109775 146.800288,10.0235103 L146.800288,23.3487015 L148.180985,24.7179221 C149.186015,25.7145985 149.227833,27.0015691 148.2235,27.9975544 L146.967561,29.284525 C145.963227,30.2805103 144.664773,30.1975691 143.660439,29.2015838 L141.651076,27.2089221 C140.3115,29.1186426 138.134864,30.1146279 135.288439,30.1146279 C130.015167,30.1146279 126.581894,27.0838191 126.581894,21.6463338" id="Fill-16"></path>
                    <path d="M150.736215,24.0539779 L150.736215,23.7629926 C150.736215,23.223875 151.113276,22.8914191 151.615791,22.8914191 L155.843609,22.8914191 C156.346124,22.8914191 156.638852,23.1409338 156.638852,23.6807426 L156.638852,23.846625 C156.638852,25.1335956 157.601367,25.7141838 160.196882,25.7141838 C162.456458,25.7141838 163.545821,25.0499632 163.545821,23.7629926 L163.545821,23.3897574 C163.545821,22.3937721 163.085124,22.0205368 162.038973,21.8954338 L156.638852,21.1482721 C152.075791,20.5262132 150.653276,18.7409044 150.653276,15.2124485 L150.653276,14.8806838 C150.653276,10.6458456 153.792427,7.98896324 160.112548,7.98896324 C166.475185,7.98896324 169.321609,9.981625 169.321609,14.0084191 L169.321609,14.2164632 C169.321609,14.7555809 168.945245,15.0873456 168.44273,15.0873456 L164.25673,15.0873456 C163.713094,15.0873456 163.41967,14.8385221 163.41967,14.3401838 L163.41967,14.1743015 C163.41967,12.9288015 162.540791,12.3896838 160.112548,12.3896838 C157.810458,12.3896838 156.848639,12.9702721 156.848639,14.2572426 L156.848639,14.5896985 C156.848639,15.5856838 157.308639,15.9589191 158.396609,16.1248015 L163.796033,16.8726544 C168.359094,17.4954044 169.741185,19.2800221 169.741185,22.7255368 L169.741185,23.1824044 C169.741185,27.4158603 166.5177,30.1149044 160.196882,30.1149044 C153.666973,30.1149044 150.736215,28.1222426 150.736215,24.0539779" id="Fill-18"></path>
                </g>
            </g>
        </g>
    </g>
</svg>